# xmcd CD database file
#
# Track frame offsets:
#	150
#	19898
#	31381
#	48269
#	60783
#	79215
#	96756
#	111211
#	126564
#	145294
#
# Disc length: 2221 seconds
#
# Revision: 0
# Processed by: cddbd v1.5.2PL0 Copyright (c) Steve Scherf et al.
# Submitted via: CDex 1.81
#
DISCID=8308ab0a
DTITLE=Barefoot Jerry - You Can't Get Off With Your Shoes On
DYEAR=1975
DGENRE=Country
TTITLE0=Ali Babba (T.& I.Dearmore)
TTITLE1=Boogie Woogie (C.Smith)
TTITLE2=Slowin' Down (W.Moss)
TTITLE3=You Can't Get Off With Your Shoes On (W.Moss)
TTITLE4=West Side Of Mississipi (R.Hicks-J.Willis)
TTITLE5=The Measure Of Your Worth (T.Dearmore-W.Hartman)
TTITLE6=Lucille (Penniman-Collins)
TTITLE7=Hero Frood (Hicks-Manning)
TTITLE8=Sinkin' In The Sea (W.Hartman)
TTITLE9=Cades Cove (W.Moss-R.Hicks)
EXTD=YEAR: 1975
EXTT0=
EXTT1=
EXTT2=
EXTT3=
EXTT4=
EXTT5=
EXTT6=
EXTT7=
EXTT8=
EXTT9=
PLAYORDER=
